<?xml version="1.0" encoding="UTF-8"?>
<svg id="Camada_1" data-name="Camada 1" xmlns="http://www.w3.org/2000/svg" viewBox="0 0 572 540">
  <defs>
    <style>
      .cls-1 {
        fill: #fff;
      }

      .cls-2 {
        fill: #00b140;
      }
    </style>
  </defs>
  <g>
    <polygon points="476.19 270 476.19 460.19 95.81 460.19 95.81 79.81 286 79.81 286 47.29 63.29 47.29 63.29 492.71 508.71 492.71 508.71 270 476.19 270"/>
    <polygon class="cls-2" points="413.28 142.72 158.72 142.72 158.72 270 191.25 270 191.25 175.24 380.76 175.24 380.76 364.76 286 364.76 286 397.28 413.28 397.28 413.28 142.72"/>
    <polygon points="254.16 238.16 254.16 301.84 317.84 301.84 317.84 270 286 270 286 238.16 254.16 238.16"/>
  </g>
  <g>
    <path class="cls-2" d="M334.07,130.36c14.33,22.96-6.36,45.5-23.18,33.54,5.61-17.77,9.09-31.61,8.8-40.2-14.31,4.06-29.51-6.47-38.74-14.73-.13.31-.27.64-.41.97-8.35,18.42-28.28,19.31-40.98,17.76,1.5,10.92,4.18,20.03,6.38,28.71.15,2.75-8.07,9.85-18.18,7.55-11.22-2.54-7.8-22.37-7.8-22.37,0,0-28.29-7.55-26.39-29.27,1.8-20.43,18.19-14.04,19.62-11.82.16,0,.04,0,.2,0,1.12-3.88,2.77-48.93,28.48-55.83,13.57-3.65,20.92,6.9,18.73,10.17.81-.42,36.21-18.57,51.98-5.08,3.68,3.14,4.81,8.39,2.69,12.74-1.22,2.52-3.26,5.25-6.68,7.39,5.54.52,11.68,2.43,16.86,4.44,8.9,3.43,16.91,8.95,22.83,16.42,22.35,28.11-14.21,39.61-14.21,39.61Z"/>
    <path class="cls-1" d="M310.89,163.9c-4.94,9.98-12.95,16.93-19.68,21.36-6.59,4.33-11.94,6.25-11.94,6.25,0,0-7.15-1-15.55-8.22-6-5.15-12.64-13.48-17.78-26.88-2.2-8.68-4.88-17.79-6.38-28.71,12.7,1.55,32.63.66,40.98-17.76.14-.33.28-.66.41-.97,9.23,8.26,24.43,18.79,38.74,14.73.29,8.59-3.19,22.43-8.8,40.2Z"/>
    <path class="cls-1" d="M298.44,201.75l-3.7,4.84-.39.52c-1.99,2.14-3.98,3.73-5.94,4.89-2.24,1.33-4.45,2.08-6.58,2.39-2.17.32-4.25.19-6.21-.24-3.05-.66-5.78-2.04-8.05-3.55-4.16-2.77-6.73-5.96-6.73-5.96l-1.1-4.08c1.08-1.68,4.77-7.45,3.98-17.27,8.4,7.22,15.55,8.22,15.55,8.22,0,0,5.35-1.92,11.94-6.25.7,12.8,7.23,16.49,7.23,16.49Z"/>
    <polygon class="cls-1" points="321.52 421.33 309.37 457.72 308.64 461.55 308.64 461.56 305.5 477.98 293.67 486.08 279.17 456.98 288.37 425.75 321.52 421.33"/>
    <polygon class="cls-1" points="293.67 486.08 282.61 482.44 269.46 457.24 279.74 426.9 288.37 425.75 279.17 456.98 293.67 486.08"/>
    <path class="cls-1" d="M371.17,325.84l-15.16.77-56.9,2.9h0l-46.01,2.34-1.74.09h-.01l-26.41,1.34-35.13,1.79-5.77.29-13.26.68,4.29,10.77.65,1.58h.01l9.83,24.07h.01l18.02,44.12,8.05,19.4,68.11-9.08,8.63-1.15,33.15-4.42,28.3-3.77,1.95-5.13,22.23-58.34,11.03-28.96-13.86.71ZM286.17,393.72l-20.9-9.9,19.33-12.7,20.9,9.9-19.33,12.7Z"/>
    <polygon points="175.72 348.39 185.55 372.46 185.54 372.46 175.71 348.39 175.72 348.39"/>
    <polygon points="185.56 372.46 203.58 416.58 185.55 372.46 185.56 372.46"/>
    <polygon class="cls-2" points="305.5 381.02 286.17 393.72 265.27 383.82 284.6 371.12 305.5 381.02"/>
    <line x1="356.1" y1="326.82" x2="356.01" y2="326.61"/>
    <line x1="341.44" y1="313.43" x2="341.41" y2="313.33"/>
    <path class="cls-1" d="M314.44,206.46c-2.8,3.45-4.45,7.22-7.44,10.8-2.27,2.71-5.3,5.31-10.17,7.6-3.3,1.55-7.46,2.95-12.8,4.14-1.82.41-3.78.79-5.9,1.14-3.4.57-6.48.63-9.27.29-5.34-.65-9.59-2.77-12.98-5.59-4.24-3.5-7.11-8.09-9.02-12.25-2.23-4.84-3.15-9.1-3.4-10.42l8.47-2.45,7.81.84,1.1,4.08s2.57,3.19,6.73,5.96c2.27,1.51,5,2.89,8.05,3.55,1.96.43,4.04.56,6.21.24,2.13-.31,4.34-1.06,6.58-2.39,1.96-1.16,3.95-2.75,5.94-4.89l.39-.52,3.7-4.84,5.25,1.09,10.75,3.62Z"/>
    <path class="cls-1" d="M201.62,315.93l-11.82,19.14-5.77.29c-1.24-20.83,17.59-19.43,17.59-19.43Z"/>
    <path class="cls-1" d="M253.09,331.85l-1.74.09h-.01l-26.41,1.34-35.13,1.79,11.82-19.14,3.09-4.99,3.09-5,11.44-1.41h.01l5.39-.67s6.17,3.68,11.76,6.1c2.55,1.11,4.98,1.95,6.65,2.06l10.04,19.83Z"/>
    <path class="cls-1" d="M256.6,299.76l-2.06,3.38-12.2,1.49-5.94,5.33c-5.59-2.42-11.76-6.1-11.76-6.1l-5.39.67,21.09-10.84,16.26,6.07Z"/>
    <path class="cls-1" d="M313.02,320.84l4.69-.71-11.94-9.89-11.67-1.4-3.81-11.35,20.9.12s7.81,6.27,15.62,11.31c3.81,2.46,7.62,4.62,10.52,5.62l4.08-1.21,8.25-2.45,1.6,3.97,4.75,11.76-56.9,2.9,13.91-8.67Z"/>
    <path class="cls-1" d="M341.41,313.33l-4.08,1.21c-2.9-1-6.71-3.16-10.52-5.62l-1.32-11.41,9.57-5.23,6.35,21.05Z"/>
    <path class="cls-1" d="M371.17,325.84l-15.16.77-4.75-11.76s13.69-.73,19.91,10.99Z"/>
    <path class="cls-1" d="M428.66,311.3l-5.28,18.88-34.58,25.33-5.1,5.33-9.7-6.75,11.03-28.96-13.86.71c-6.22-11.72-19.91-10.99-19.91-10.99l-1.6-3.97-8.25,2.45-6.35-21.05-9.57,5.23,1.32,11.41c-7.81-5.04-15.62-11.31-15.62-11.31l-20.9-.12,3.81,11.35,11.67,1.4,11.94,9.89-4.69.71-13.91,8.67h0l-46.01,2.34-10.04-19.83c-1.67-.11-4.1-.95-6.65-2.06l5.94-5.33,12.2-1.49,2.06-3.38-16.26-6.07-21.09,10.84h-.01l-11.44,1.41-3.09,5-3.09,4.99s-18.83-1.4-17.59,19.43l-13.26.68,4.29,10.77.65,1.58-20.96,5.12-6.64-13.13-.08-8.99c-.26-2.49-2.55-8.23-2.55-8.23-4.36-11.94-15.99-28.47-15.99-28.47l.61-16.96-2.1-6.63,46.41-38.12,5.19-2.63,3.28-7.39,7.9,1.73,2.09-6.79,40.55-9.97,10.04-5.76c.25,1.32,1.17,5.58,3.4,10.42,1.91,4.16,4.78,8.75,9.02,12.25,3.39,2.82,7.64,4.94,12.98,5.59,2.79.34,5.87.28,9.27-.29,2.12-.35,4.08-.73,5.9-1.14,5.34-1.19,9.5-2.59,12.8-4.14,4.87-2.29,7.9-4.89,10.17-7.6,2.99-3.58,4.64-7.35,7.44-10.8l25.02,8.41,13.82,10.67,7.37-1.49s8.56,11.37,14.4,15.14c5.84,3.77,35.71,26.22,35.71,26.22l6.08,8.69s-.32,8.69-.87,11.32l1.72.87,10.97,25.01Z"/>
    <path class="cls-2" d="M203.58,416.58l-19.49,6.81-54.67,9.84-13.12-5.41-12.49-30.06-9.46-12.54,6.84-22.84,18-20.84,7.65-15.09,18.64-3.29s2.29,5.74,2.55,8.23l.08,8.99,6.64,13.13,20.96-5.12h.01l9.83,24.07h.01l18.02,44.12Z"/>
    <polygon class="cls-2" points="463.72 371.27 445.55 395.88 431.68 418.32 413.79 410.78 402.84 413.95 388.42 409.99 351.77 412.43 374 354.09 383.7 360.84 388.8 355.51 423.38 330.18 460.54 352.12 463.72 371.27"/>
    <g>
      <path d="M244.49,156.78c-.4-1.58-.82-3.17-1.24-4.79-1.94-7.41-3.94-15.07-5.17-24.09l-.26-1.93,1.93.24c13.71,1.67,31.66.11,39.39-16.79l.07-.16c.22-.53.45-1.16.64-1.79.49-1.64.84-2.92.97-3.6l2.94.59c-.2.99-.68,2.65-1.04,3.88-.21.71-.47,1.42-.75,2.1l-.05.12c-8.44,18.62-28.27,20-40.59,18.84,1.22,8.03,3.05,15.04,4.83,21.83.42,1.62.84,3.22,1.24,4.81l-2.91.74Z"/>
      <path d="M312.33,164.35l-2.86-.9c5.8-18.39,8.54-30.23,8.74-37.85-14.05,2.82-28.45-6.75-38.25-15.52l2-2.24c9.67,8.66,24.01,18.18,37.33,14.4l1.84-.52.06,1.92c.27,7.86-2.47,20.41-8.87,40.7Z"/>
      <path d="M320.75,168.69c-3.66,0-7.36-1.18-10.73-3.58l1.74-2.45c7.54,5.36,14.93,2.84,19.33-1.3,6.24-5.88,9.44-17.84,1.71-30.22l-1.02-1.64,1.85-.58c.16-.05,16.26-5.26,19.73-16.63,1.87-6.12-.23-13.05-6.25-20.62-5.52-6.97-13.2-12.49-22.2-15.95-6.32-2.45-11.85-3.91-16.46-4.35l-4.41-.41,3.76-2.35c2.71-1.7,4.77-3.97,6.13-6.77,1.82-3.73.87-8.23-2.31-10.95-14.98-12.81-49.96,5.09-50.32,5.27l-5.19,2.69,3.25-4.86c.29-.44.16-1.81-1.06-3.51-2.41-3.36-8.05-6.53-16.04-4.38-21.19,5.69-25.43,39.66-26.83,50.82-.28,2.25-.42,3.35-.6,3.98l-.29,1.02-1.06.06c-.23.01-.31,0-.35,0h-.73s-.48-.69-.48-.69c-.54-.67-5.09-2.95-9.47-1.63-4.22,1.28-6.77,5.69-7.4,12.77-1.77,20.23,25.01,27.62,25.28,27.69l1.32.35-.23,1.35c-.03.18-3.05,18.46,6.65,20.65,7.16,1.63,12.44-1.92,13.89-3.05,1.83-1.42,2.46-2.63,2.46-2.96l3-.16c.12,2.11-2.15,4.26-3.12,5.08-3.54,2.99-9.84,5.62-16.89,4.01-10.79-2.44-9.71-18.07-9.13-22.78-5.65-1.86-27.96-10.5-26.22-30.46.97-11.02,6.03-14.53,10.11-15.54,3.78-.94,7.69.03,10.1,1.31.06-.43.11-.9.18-1.4,1.46-11.66,5.88-47.14,29.02-53.35,9.46-2.55,16.29,1.39,19.25,5.53.86,1.2,1.41,2.42,1.63,3.56,8.58-4.02,36.98-15.84,51.19-3.69,4.22,3.6,5.48,9.58,3.06,14.54-1.06,2.19-2.49,4.12-4.26,5.75,4.05.73,8.62,2.08,13.63,4.03,9.49,3.66,17.61,9.5,23.46,16.89,6.67,8.39,8.94,16.25,6.76,23.37-3.25,10.6-15.34,16.19-19.93,17.97,7.39,13.25,3.69,25.97-3.14,32.4-3.62,3.41-7.98,5.14-12.4,5.14Z"/>
      <path d="M279.44,193.04l-.36-.05c-.22-.03-22-3.29-34.53-36.05l2.8-1.07c10.94,28.59,29.04,33.49,31.79,34.08,2.87-1.13,21.71-9.13,30.42-26.72l2.69,1.33c-9.94,20.08-31.54,28.02-32.46,28.35l-.34.12Z"/>
      <path d="M281.81,169.76c-3.1,0-6.64-1.15-10.77-3.41l1.44-2.63c9.81,5.38,14.09,3.03,17.81-2.51l2.49,1.67c-3.1,4.61-6.61,6.87-10.98,6.87Z"/>
      <polygon points="278.22 153.04 275.94 151.09 280.08 146.26 276.32 139.33 278.96 137.9 283.7 146.64 278.22 153.04"/>
      <path d="M297.7,203.05c-.3-.17-7.25-4.25-7.99-17.71l3-.16c.65,11.84,6.41,15.23,6.47,15.27l-1.48,2.61Z"/>
      <path d="M261,201.37l-2.52-1.62c2.98-4.64,4.25-10.14,3.75-16.34l2.99-.24c.55,6.87-.86,12.99-4.21,18.2Z"/>
      <polygon points="293.91 487.73 281.56 483.67 267.83 457.36 278.32 426.41 281.16 427.38 271.09 457.11 283.66 481.2 293.44 484.42 304.14 477.09 307.95 457.24 320.1 420.85 322.95 421.8 310.83 458.1 306.86 478.86 293.91 487.73"/>
      <path d="M286.29,395.43l-24.08-11.4,22.26-14.63,24.08,11.4-22.26,14.63ZM268.33,383.61l17.73,8.4,16.39-10.78-17.73-8.4-16.39,10.78Z"/>
      <path d="M184.92,296.35l-5.69-4.35c-3.18.43-16.97,1.92-24.3-2.94l1.66-2.5c7.17,4.76,22.67,2.41,22.82,2.39l.63-.1,4.73,3.62,3.96-3.52-2.31-4.56,3.5-6.19,4.17-6.54-5.69-8.35,2.38-6.7,2.83,1-1.87,5.26,4.07,5.96.89-1.27,2.49,1.67-6.7,10.5-2.67,4.73,2.63,5.19-7.53,6.71Z"/>
      <path d="M204.18,312.34c-.67-.25-16.38-6.25-20.74-17.39l2.79-1.09c3.87,9.91,18.85,15.62,19,15.67l-1.05,2.81Z"/>
      <path d="M210.69,437.61l-8.49-20.46-28.53-69.79-5.06-12.72,218.65-11.13-36.35,95.41-140.21,18.69ZM176.45,346.25l28.52,69.76,7.61,18.32,136.15-18.15,34.08-89.44-209.87,10.68,3.51,8.82Z"/>
      <path d="M182.53,335.45c-.41-6.95,1.27-12.34,5-16.01,5.65-5.57,13.86-5.02,14.21-5l-.22,2.99c-.07,0-7.23-.45-11.9,4.16-3.07,3.04-4.45,7.64-4.09,13.68l-3,.18Z"/>
      <path d="M191.08,335.85l-2.55-1.58,18.37-29.74,18.07-2.23.44.26c3.55,2.12,13.65,7.68,17.74,7.95l.85.06,10.43,20.59-2.68,1.36-9.68-19.11c-5.42-.89-15.28-6.55-17.75-8l-15.62,1.93-17.62,28.52Z"/>
      <rect x="237.41" y="312.04" width="3" height="27.67" transform="translate(-158.69 397.88) rotate(-64.02)"/>
      <rect x="220.03" y="327.73" width="3" height="7.63" transform="translate(-174.42 378.67) rotate(-63.04)"/>
      <polygon points="237.4 311.08 235.4 308.84 241.69 303.19 253.64 301.74 254.38 300.52 240.44 295.33 219.93 305.86 218.56 303.19 240.24 292.05 258.82 298.98 255.45 304.54 243 306.06 237.4 311.08"/>
      <path d="M299.9,330.78l-1.59-2.55,14.18-8.83,1.69-.26-9.02-7.47-12.17-1.46-4.78-14.24,23.52.14.41.33c.17.13,16.61,13.3,25.24,16.52l13.16-3.91,6.95,17.2-2.78,1.12-5.93-14.67-11.48,3.41-.45-.16c-8.33-2.86-23.43-14.68-26.18-16.85l-18.28-.11,2.84,8.47,11.16,1.34,11.76,9.74,5.84-.89.45,2.97-7.17,1.09h0s-3.72.56-3.72.56l-13.65,8.5Z"/>
      <polygon points="340 313.86 334.15 294.48 327.1 298.33 328.3 308.75 325.32 309.09 323.89 296.67 335.96 290.07 342.88 312.99 340 313.86"/>
      <path d="M383.9,362.8l-10.75-7.48,1.71-2.46,8.65,6.02,4.41-4.58,34.16-25.02,5-17.86-10.54-24.03-2.27-1.15.24-1.13c.4-1.92.71-7.86.82-10.57l-5.65-8.08c-2.57-1.93-29.95-22.47-35.43-26.02-5.17-3.34-12.16-12.1-14.21-14.74l-7.12,1.44-14.16-10.93-35.45-11.92-4.24-.88-3.61,4.72c-11.42,12.25-22.89,7.59-28.71,3.72-4.3-2.87-6.96-6.13-7.07-6.27l-.2-.25-.92-3.39-6.49-.7-8.02,2.31-10.07,5.78-39.93,9.82-2.25,7.3-8.05-1.76-3,6.76-5.52,2.8-45.5,37.37,1.87,5.91-.6,16.72c1.87,2.7,11.84,17.33,15.88,28.4l-2.82,1.03c-4.24-11.61-15.69-27.96-15.81-28.12l-.29-.41.62-17.21-2.33-7.35,47.47-38.94,4.71-2.39,3.56-8.02,7.75,1.7,1.93-6.28,41.17-10.12,10.19-5.79,8.75-2.53,9.12.98,1.28,4.75c.65.76,2.92,3.24,6.2,5.42,6.13,4.08,15.4,6.82,24.8-3.21l4.62-6.05,6.35,1.33,36.01,12.11,13.48,10.41,7.62-1.54.57.76c.08.11,8.47,11.2,14.02,14.78,5.82,3.76,34.58,25.36,35.8,26.28l.19.14,6.51,9.3-.02.5c-.01.32-.26,7-.71,10.42l1.22.62,11.4,25.99-5.56,19.9-34.89,25.56-5.9,6.16Z"/>
      <path d="M129.26,434.78l-14.1-5.81-12.66-30.46-9.8-12.99,7.15-23.88,18.09-20.94,7.91-15.59,20.58-3.63.45,1.14c.4,1,2.39,6.1,2.65,8.63v.14s.08,8.64.08,8.64l5.94,11.75,21.07-5.14,28.95,70.85-21.21,7.39-55.1,9.92ZM117.45,426.67l12.14,5.01,54.12-9.74,17.89-6.25-26.77-65.53-20.87,5.1-7.33-14.51-.08-9.26c-.18-1.5-1.22-4.55-2-6.63l-16.69,2.94-7.51,14.72-17.79,20.6-6.53,21.81,9.19,12.26,12.25,29.49Z"/>
      <path d="M369.84,326.54c-5.68-10.71-17.98-10.22-18.5-10.19l-.16-3c.59-.03,14.72-.64,21.31,11.78l-2.65,1.41Z"/>
      <polygon points="350.51 312.11 348.8 309.64 373.95 292.21 396.97 297.51 396.3 300.44 374.57 295.44 350.51 312.11"/>
      <path d="M366.46,295.88l-7.26-11.65.05-.51c.9-8.65,1.72-18.28,1.59-19.89l-9.38-18.6-2.43-9.13,2.9-.77,2.39,8.98,9.29,18.35c.23.45.7,1.38-1.32,20.87l6.72,10.78-2.55,1.59Z"/>
      <polygon points="432.28 420.2 413.7 412.37 402.86 415.51 388.27 411.5 351.87 413.92 351.67 410.93 388.58 408.47 402.83 412.39 413.89 409.19 431.08 416.44 444.35 394.99 462.14 370.88 459.18 353.05 422.62 331.47 424.14 328.88 461.91 351.18 465.3 371.64 446.8 396.72 432.28 420.2"/>
      <polygon points="292.33 486.75 277.57 457.12 286.94 425.32 289.81 426.17 280.78 456.83 295.02 485.41 292.33 486.75"/>
      <rect x="303.96" y="441.42" width="3" height="20.64" transform="translate(-124.26 116.01) rotate(-17.93)"/>
      <rect x="308.54" y="428.57" width="3" height="18.9" transform="translate(-119.81 116.75) rotate(-17.93)"/>
      <path d="M272.37,232.13c-1.26,0-2.49-.07-3.69-.22-5.16-.63-9.79-2.62-13.76-5.93-3.8-3.14-6.97-7.44-9.42-12.78-2.32-5.03-3.27-9.51-3.51-10.77l2.95-.56c.22,1.17,1.11,5.35,3.29,10.07,2.26,4.93,5.16,8.87,8.61,11.72,3.53,2.93,7.63,4.7,12.21,5.26,2.75.33,5.73.24,8.84-.28,2.06-.34,4.02-.72,5.82-1.12,5-1.11,9.08-2.43,12.49-4.03,4.08-1.92,7.15-4.21,9.66-7.21,1.49-1.78,2.66-3.67,3.8-5.49,1.09-1.75,2.22-3.56,3.62-5.29l2.33,1.89c-1.29,1.59-2.32,3.24-3.41,4.99-1.19,1.91-2.43,3.89-4.04,5.83-2.8,3.35-6.2,5.89-10.68,8-3.61,1.7-7.9,3.08-13.11,4.25-1.85.42-3.86.81-5.98,1.16-2.06.34-4.07.52-6.01.52Z"/>
      <rect x="252.52" y="216.22" width="18.42" height="3" transform="translate(-72.62 281.86) rotate(-50.61)"/>
      <rect x="263.43" y="220.79" width="17.63" height="3" transform="translate(-37.45 388.47) rotate(-67.45)"/>
      <rect x="281.43" y="214.3" width="3" height="14.77" transform="translate(-29.78 44.47) rotate(-8.54)"/>
      <rect x="291.12" y="210.74" width="3" height="15.37" transform="translate(-71.84 195.91) rotate(-33.2)"/>
      <rect x="299.37" y="203.8" width="3" height="16.25" transform="translate(-56.51 299.74) rotate(-48.96)"/>
      <rect x="245.81" y="207.11" width="16.08" height="3" transform="translate(-69.95 152.82) rotate(-29.64)"/>
      <polygon points="415.75 357.27 402.08 354.63 389.07 356.98 388.53 354.03 402.1 351.58 407.23 352.57 406.99 352.31 409.18 350.26 415.75 357.27"/>
      <polygon points="152.58 384.23 149.84 383 152.8 376.42 171.72 369.59 185.7 370.97 185.41 373.95 172.1 372.64 155.02 378.81 152.58 384.23"/>
      <rect x="151.06" y="374.6" width="3" height="3.61" transform="translate(-229.9 239.73) rotate(-48.27)"/>
    </g>
  </g>
</svg>